<svg width="1024" height="1024" viewBox="0 0 1024 1024" fill="none" xmlns="http://www.w3.org/2000/svg">
<path d="M498.976 43.2965C499.554 43.2476 500.13 43.2126 500.71 43.1915C515.515 42.6223 531.225 43.7851 546.005 44.9169C650.185 52.7425 748.6 95.779 825.08 166.953C915.595 251.967 964.1 363.299 967.945 487.084C972.005 592.92 940.37 697.05 878.13 782.745C814.765 869.035 721.505 932.525 617.57 958.67C586.635 966.395 554.955 970.735 523.08 971.605C521.725 971.73 520.365 971.805 519.005 971.83C501 972.34 481.439 970.78 463.578 968.655C367.448 957.2 277.471 915.4 206.708 849.335C114.454 763.03 60.2885 643.595 56.14 517.33C52.4855 390.428 93.6195 276.411 181.008 184.06C264.322 97.093 378.585 46.5092 498.976 43.2965ZM461.551 102.224C435.843 101.467 407.94 102.011 382.029 102.007C382.317 104.413 382.724 106.205 382.205 108.559C379.995 109.777 361.259 109.164 357.423 109.025C357.472 113.061 357.425 117.515 357.581 121.511C349.217 121.468 340.853 121.471 332.489 121.52C332.566 125.486 332.541 130.046 332.771 133.958C323.999 134.095 315.225 134.113 306.453 134.009C306.489 136.586 307.06 147.482 305.726 148.872C302.089 149.397 286.456 149.204 282.017 149.148C281.984 155.094 281.981 161.039 282.01 166.985C273.386 167.07 263.886 166.938 255.349 167.311C255.089 173.85 254.994 180.394 255.062 186.937C250.415 186.999 242.924 186.88 238.513 187.374C231.17 192.507 209.597 216.618 203.278 223.872C148.582 286.663 119.372 349.239 104.92 431.015C86.182 537.89 110.157 647.845 171.684 737.215C239.843 834.47 331.272 897.885 448.816 917.905C552.99 935.645 658.94 908.495 744.54 847.67C763.015 834.545 780.29 820.375 796.205 804.22C798.04 802.38 803.155 798.255 804.27 796.47L804.295 795.985C792.68 796.765 780.105 796.245 768.34 796.28L701.025 796.485C700.735 787.94 701.09 777.815 700.985 769.1C700.905 762.09 700.65 749.63 701.43 743.045C691.535 743.105 673.35 743.725 664.105 742.99C664.075 749.76 663.82 758.54 664.39 765.105L638.43 764.975C638.68 774.455 638.775 786.605 638.475 796.035C623.535 796.685 608.505 796.355 593.545 796.345L524.255 796.38L329.936 796.27C329.82 786.805 329.201 774.06 330.605 764.985C322.326 765.175 313.736 765.055 305.432 765.04C305.325 757.72 305.366 750.395 305.555 743.07C290.366 743.125 271.779 742.55 256.997 743.38C257.843 731.87 257.274 715.93 257.435 703.99C249.284 703.945 241.133 703.945 232.982 703.99C233.191 688.69 232.902 672.355 232.936 656.95C226.692 656.935 220.668 656.92 214.424 657.155C214.595 640.455 214.058 623.825 214.158 607.345L214.459 358.714C220.599 358.992 226.646 358.73 232.782 358.53C232.317 352.287 232.589 343.556 232.61 337.096C232.682 324.894 232.678 312.691 232.599 300.489C240.657 300.611 249.524 300.311 257.479 300.748C257.582 291.56 257.124 282.051 257.483 272.92C264.512 272.842 271.542 272.877 278.57 273.024C278.284 265.352 278.448 256.799 278.438 249.06C286.978 248.494 301.545 248.915 310.376 248.902C310.021 242.692 310.206 232.23 310.416 225.985C317.137 225.88 323.859 225.881 330.58 225.988C330.22 222.961 330.136 220.784 330.047 217.752C338.473 218.253 349.922 217.923 358.58 217.91C358.422 210.388 358.442 202.864 358.642 195.343C366.566 194.652 386.884 195.284 395.574 195.295L472.888 195.324L596.9 195.3C617.87 195.286 643.84 194.518 664.47 195.377C664.155 202.901 664.03 210.431 664.085 217.961C672.29 217.621 682.15 217.89 690.43 217.923L690.45 226.038C697.775 225.821 704.94 225.857 712.33 225.582C712.135 233.388 712.03 241.195 712.02 249.003C721.67 248.701 735.55 249.55 744.675 248.517C744.525 256.647 744.54 264.865 744.495 273.002C751.815 272.676 760.35 273.205 767.505 272.45C767.495 281.094 767.8 292.294 767.225 300.733C773.37 300.27 783.87 300.606 790.515 300.52V358.051L783.16 357.966C768.825 358.629 749.855 358.071 735.23 358.072L641.08 358.048C632.26 358.054 623.145 358.182 614.35 358.05C614.835 342.384 613.76 322.962 614.78 307.979C575.55 309.134 533.315 308.112 493.882 308.249C473.953 308.423 454.022 308.405 434.094 308.194C427.271 308.169 414.933 308.704 408.573 308.216L408.585 540.495L408.571 615.465C408.565 627.405 408.067 644.62 408.816 656.3C415.936 655.695 426.886 655.96 434.243 655.945C433.708 666.32 434.508 677.04 434.026 687.09C455.461 686.43 479.347 686.93 501.04 686.935L614.63 686.97C614.425 661.87 614.37 636.775 614.465 611.675C614.465 597.735 613.855 577.56 614.715 563.98L547.48 564.015L527.02 564.055C524.995 564.055 519.05 564.19 517.285 563.965L510.71 564.265C511.39 529.98 509.685 492.856 510.995 458.995C522.91 458.632 535.415 458.868 547.38 458.869L614 458.877L807.075 458.85C806.21 487.201 806.865 518.86 806.86 547.51L806.78 723.165L806.9 770.635C806.9 773.13 807.05 787.665 806.605 789.355C806.735 791.245 806.855 792.37 806.685 794.24C808.155 793.06 811.23 789.125 812.695 787.44C818.89 780.325 824.94 773.085 830.835 765.725C881.885 704.06 913.935 628.9 923.105 549.37C935.69 437.713 903.26 325.645 832.99 237.967C818.405 219.832 802.45 202.845 785.26 187.158C779.015 187.054 772.695 187.098 766.475 186.949C766.485 180.531 766.355 173.405 766.61 167.049L742.06 167.138C742.075 161.107 741.975 154.975 742.44 148.97C734.795 149.119 723.77 148.821 716.62 149.451C716.715 144.287 716.745 139.122 716.705 133.957C708.655 134.069 700.605 134.097 692.555 134.043C692.565 130.301 692.425 125 692.725 121.385C684.31 121.465 675.765 121.39 667.375 121.529C667.38 117.24 667.335 113.327 667.735 109.036C658.44 109.089 647.605 108.901 638.435 109.512L638.58 102.002L562.89 101.991C562.82 99.653 562.69 84.849 562.235 83.767C558.56 82.8715 545.98 82.752 541.3 82.6125C524.51 82.0265 507.71 81.894 490.913 82.214C481.05 82.4655 471.251 83.2785 461.467 83.562C461.482 89.7005 461.407 96.1085 461.551 102.224Z" fill="#8CFF00"/>
<path d="M510.995 458.995C522.91 458.631 535.415 458.867 547.38 458.868L614 458.876L807.075 458.85C806.21 487.2 806.865 518.86 806.86 547.51L806.78 723.165L806.9 770.635C806.9 773.13 807.05 787.665 806.605 789.355C806.325 787.91 806.425 784.23 806.27 782.48C805.565 774.33 805.515 766.53 805.5 758.375L805.49 707.72L805.495 518L805.55 479.01C805.565 476.371 805.815 462.924 805.37 461.155C801.825 460.183 801.825 460.319 798.07 460.482L798.29 460.039C799.64 459.377 801.415 459.559 802.99 459.547C797.26 459.236 793.165 459.208 787.45 459.351L787.22 459.631L789.695 460.5C787.3 461.08 781.58 459.826 778.715 459.944C770.865 460.268 763.955 461.174 756.165 459.421C753.18 459.48 749.94 460.176 746.985 460.226C736.64 460.402 725.175 459.238 715.005 459.717L717.25 459.905C714.63 460.231 710.11 460.021 707.295 460.006C676.825 459.84 646.055 460.302 615.605 459.919L589.14 459.728C581.685 459.613 575.535 459.142 568.005 459.621L576.25 460.169C575.48 460.37 565.22 460.32 563.805 460.301C554.28 460.211 544.62 460.166 535.115 460.594C530.06 460.822 517.525 459.051 513.435 461.351C511.63 465.63 512.29 474.752 512.22 479.655C511.985 496.454 511.51 513.73 511.91 530.5C512.105 538.455 510.675 555.895 512.285 562.99C514.245 563.505 515.27 563.68 517.285 563.965L510.71 564.265C511.39 529.98 509.685 492.856 510.995 458.995Z" fill="#8CFF00"/>
<path d="M641.08 358.048C645.29 355.421 700.55 356.705 710.575 356.683C726.35 356.525 742.125 356.457 757.9 356.481C762.19 356.484 780.375 356.073 783.16 357.966C768.825 358.629 749.855 358.071 735.23 358.072L641.08 358.048Z" fill="#8CFF00"/>
</svg>
